<mxfile host="65bd71144e">
    <diagram id="068oyaUkRdceqvpqKm6P" name="Page-1">
        <mxGraphModel dx="969" dy="825" grid="1" gridSize="10" guides="1" tooltips="1" connect="1" arrows="1" fold="1" page="1" pageScale="1" pageWidth="827" pageHeight="583" background="#FFFFFF" math="0" shadow="0">
            <root>
                <mxCell id="0"/>
                <mxCell id="1" parent="0"/>
                <mxCell id="128" value="" style="rounded=0;whiteSpace=wrap;html=1;" parent="1" vertex="1">
                    <mxGeometry x="40" y="40" width="760" height="490" as="geometry"/>
                </mxCell>
                <mxCell id="101" value="DB (MySQL)" style="shape=folder;fontStyle=1;tabWidth=110;tabHeight=30;tabPosition=left;html=1;boundedLbl=1;labelInHeader=1;container=1;collapsible=0;recursiveResize=0;" parent="1" vertex="1">
                    <mxGeometry x="524" y="331" width="160" height="169" as="geometry"/>
                </mxCell>
                <mxCell id="102" value="member" style="html=1;" parent="101" vertex="1">
                    <mxGeometry width="110" height="20" relative="1" as="geometry">
                        <mxPoint x="20" y="50" as="offset"/>
                    </mxGeometry>
                </mxCell>
                <mxCell id="103" value="letter" style="html=1;" parent="101" vertex="1">
                    <mxGeometry x="20" y="109" width="110" height="20" as="geometry"/>
                </mxCell>
                <mxCell id="104" value="resume" style="html=1;" parent="101" vertex="1">
                    <mxGeometry x="20" y="80" width="110" height="20" as="geometry"/>
                </mxCell>
                <mxCell id="105" value="3306" style="text;html=1;align=center;verticalAlign=middle;resizable=0;points=[];autosize=1;strokeColor=none;fillColor=none;" parent="101" vertex="1">
                    <mxGeometry x="110" width="50" height="30" as="geometry"/>
                </mxCell>
                <mxCell id="130" value="keyword" style="html=1;" vertex="1" parent="101">
                    <mxGeometry x="20" y="138" width="110" height="20" as="geometry"/>
                </mxCell>
                <mxCell id="14" value="Server (Spring)" style="shape=folder;fontStyle=1;tabWidth=110;tabHeight=30;tabPosition=left;html=1;boundedLbl=1;labelInHeader=1;container=1;collapsible=0;recursiveResize=0;" parent="1" vertex="1">
                    <mxGeometry x="524" y="91" width="190" height="160" as="geometry"/>
                </mxCell>
                <mxCell id="15" value="Controller" style="html=1;" parent="14" vertex="1">
                    <mxGeometry width="160" height="20" relative="1" as="geometry">
                        <mxPoint x="15" y="45" as="offset"/>
                    </mxGeometry>
                </mxCell>
                <mxCell id="23" value="AuthService" style="html=1;" parent="14" vertex="1">
                    <mxGeometry x="15" y="70" width="160" height="20" as="geometry"/>
                </mxCell>
                <mxCell id="64" value="ResumeService" style="html=1;" parent="14" vertex="1">
                    <mxGeometry x="15" y="95" width="160" height="20" as="geometry"/>
                </mxCell>
                <mxCell id="65" value="LetterService" style="html=1;" parent="14" vertex="1">
                    <mxGeometry x="15" y="120" width="160" height="20" as="geometry"/>
                </mxCell>
                <mxCell id="69" value="8080" style="text;html=1;align=center;verticalAlign=middle;resizable=0;points=[];autosize=1;strokeColor=none;fillColor=none;" parent="14" vertex="1">
                    <mxGeometry x="140" width="50" height="30" as="geometry"/>
                </mxCell>
                <mxCell id="3" value="OpenAI API" style="shape=folder;fontStyle=1;tabWidth=110;tabHeight=30;tabPosition=left;html=1;boundedLbl=1;labelInHeader=1;container=1;collapsible=0;recursiveResize=0;" parent="1" vertex="1">
                    <mxGeometry x="68" y="301" width="160" height="100" as="geometry"/>
                </mxCell>
                <mxCell id="10" value="gpt-3.5-turbo" style="html=1;" parent="3" vertex="1">
                    <mxGeometry x="20" y="50" width="110" height="30" as="geometry"/>
                </mxCell>
                <mxCell id="84" style="edgeStyle=none;html=1;exitX=0.5;exitY=1;exitDx=0;exitDy=0;exitPerimeter=0;entryX=0.52;entryY=0.006;entryDx=0;entryDy=0;entryPerimeter=0;" parent="1" source="12" target="61" edge="1">
                    <mxGeometry relative="1" as="geometry"/>
                </mxCell>
                <mxCell id="12" value="Client (Next.js)" style="shape=folder;fontStyle=1;tabWidth=110;tabHeight=30;tabPosition=left;html=1;boundedLbl=1;labelInHeader=1;container=1;collapsible=0;recursiveResize=0;" parent="1" vertex="1">
                    <mxGeometry x="304" y="91" width="156" height="199" as="geometry"/>
                </mxCell>
                <mxCell id="13" value="/" style="html=1;" parent="12" vertex="1">
                    <mxGeometry width="110" height="20" relative="1" as="geometry">
                        <mxPoint x="20" y="40" as="offset"/>
                    </mxGeometry>
                </mxCell>
                <mxCell id="52" value="/resume/list" style="html=1;" parent="12" vertex="1">
                    <mxGeometry width="110" height="20" relative="1" as="geometry">
                        <mxPoint x="20" y="65" as="offset"/>
                    </mxGeometry>
                </mxCell>
                <mxCell id="53" value="/resume/edit" style="html=1;" parent="12" vertex="1">
                    <mxGeometry x="20" y="90.00000000000011" width="110" height="20" as="geometry"/>
                </mxCell>
                <mxCell id="96" style="edgeStyle=none;html=1;exitX=1;exitY=0.5;exitDx=0;exitDy=0;entryX=0;entryY=0.5;entryDx=0;entryDy=0;" parent="12" source="52" target="64" edge="1">
                    <mxGeometry relative="1" as="geometry"/>
                </mxCell>
                <mxCell id="95" style="edgeStyle=none;html=1;exitX=1;exitY=0.5;exitDx=0;exitDy=0;entryX=0;entryY=0.5;entryDx=0;entryDy=0;" parent="12" source="13" target="23" edge="1">
                    <mxGeometry relative="1" as="geometry"/>
                </mxCell>
                <mxCell id="54" value="/letter/list" style="html=1;" parent="12" vertex="1">
                    <mxGeometry x="20" y="115.00000000000011" width="110" height="20" as="geometry"/>
                </mxCell>
                <mxCell id="55" value="/letter/edit" style="html=1;" parent="12" vertex="1">
                    <mxGeometry x="20" y="140.0000000000001" width="110" height="20" as="geometry"/>
                </mxCell>
                <mxCell id="56" value="/recruit" style="html=1;" parent="12" vertex="1">
                    <mxGeometry x="20" y="165.0000000000001" width="110" height="20" as="geometry"/>
                </mxCell>
                <mxCell id="66" value="3000" style="text;html=1;align=center;verticalAlign=middle;resizable=0;points=[];autosize=1;strokeColor=none;fillColor=none;" parent="12" vertex="1">
                    <mxGeometry x="110" width="50" height="30" as="geometry"/>
                </mxCell>
                <mxCell id="110" style="edgeStyle=none;html=1;entryX=0;entryY=0.75;entryDx=0;entryDy=0;exitX=1.014;exitY=0.743;exitDx=0;exitDy=0;exitPerimeter=0;" parent="1" source="44" target="55" edge="1">
                    <mxGeometry relative="1" as="geometry"/>
                </mxCell>
                <mxCell id="44" value="Data (FastAPI)" style="shape=folder;fontStyle=1;tabWidth=110;tabHeight=30;tabPosition=left;html=1;boundedLbl=1;labelInHeader=1;container=1;collapsible=0;recursiveResize=0;" parent="1" vertex="1">
                    <mxGeometry x="54" y="91" width="160" height="109" as="geometry"/>
                </mxCell>
                <mxCell id="45" value="Controller" style="html=1;" parent="44" vertex="1">
                    <mxGeometry width="130" height="20" relative="1" as="geometry">
                        <mxPoint x="15" y="45" as="offset"/>
                    </mxGeometry>
                </mxCell>
                <mxCell id="68" value="8000" style="text;html=1;align=center;verticalAlign=middle;resizable=0;points=[];autosize=1;strokeColor=none;fillColor=none;" parent="44" vertex="1">
                    <mxGeometry x="110" width="50" height="30" as="geometry"/>
                </mxCell>
                <mxCell id="108" value="NLP" style="html=1;" parent="44" vertex="1">
                    <mxGeometry width="130" height="20" relative="1" as="geometry">
                        <mxPoint x="15" y="73" as="offset"/>
                    </mxGeometry>
                </mxCell>
                <mxCell id="139" style="edgeStyle=none;shape=connector;rounded=1;html=1;exitX=0.75;exitY=1;exitDx=0;exitDy=0;entryX=0;entryY=0.75;entryDx=0;entryDy=0;labelBackgroundColor=default;strokeColor=default;fontFamily=Helvetica;fontSize=11;fontColor=default;endArrow=classic;" edge="1" parent="44" source="108" target="130">
                    <mxGeometry relative="1" as="geometry">
                        <Array as="points">
                            <mxPoint x="216" y="199"/>
                            <mxPoint x="216" y="393"/>
                        </Array>
                    </mxGeometry>
                </mxCell>
                <mxCell id="82" style="edgeStyle=none;html=1;exitX=0.458;exitY=-0.012;exitDx=0;exitDy=0;exitPerimeter=0;entryX=0.443;entryY=1;entryDx=0;entryDy=0;entryPerimeter=0;" parent="1" edge="1" target="12" source="61">
                    <mxGeometry relative="1" as="geometry">
                        <mxPoint x="373" y="381" as="sourcePoint"/>
                        <mxPoint x="373.03999999999996" y="301" as="targetPoint"/>
                    </mxGeometry>
                </mxCell>
                <mxCell id="61" value="WAS (Nginx)" style="shape=folder;fontStyle=1;tabWidth=110;tabHeight=30;tabPosition=left;html=1;boundedLbl=1;labelInHeader=1;container=1;collapsible=0;recursiveResize=0;" parent="1" vertex="1">
                    <mxGeometry x="304" y="350" width="150" height="110" as="geometry"/>
                </mxCell>
                <mxCell id="62" value="TLS" style="html=1;" parent="61" vertex="1">
                    <mxGeometry width="110" height="20" relative="1" as="geometry">
                        <mxPoint x="15" y="45" as="offset"/>
                    </mxGeometry>
                </mxCell>
                <mxCell id="63" value="Reverse Proxy" style="html=1;" parent="61" vertex="1">
                    <mxGeometry x="14.75" y="75" width="112.5" height="20" as="geometry"/>
                </mxCell>
                <mxCell id="67" value="443" style="text;html=1;align=center;verticalAlign=middle;resizable=0;points=[];autosize=1;strokeColor=none;fillColor=none;" parent="61" vertex="1">
                    <mxGeometry x="110" width="40" height="30" as="geometry"/>
                </mxCell>
                <mxCell id="83" value="GET" style="text;html=1;align=center;verticalAlign=middle;resizable=0;points=[];autosize=1;strokeColor=none;fillColor=none;" parent="1" vertex="1">
                    <mxGeometry x="320" y="310" width="50" height="30" as="geometry"/>
                </mxCell>
                <mxCell id="86" value="POST" style="text;html=1;align=center;verticalAlign=middle;resizable=0;points=[];autosize=1;strokeColor=none;fillColor=none;rotation=0;" parent="1" vertex="1">
                    <mxGeometry x="66" y="236" width="60" height="30" as="geometry"/>
                </mxCell>
                <mxCell id="89" value="JSON" style="text;html=1;align=center;verticalAlign=middle;resizable=0;points=[];autosize=1;strokeColor=none;fillColor=none;rotation=0;" parent="1" vertex="1">
                    <mxGeometry x="126" y="236" width="60" height="30" as="geometry"/>
                </mxCell>
                <mxCell id="93" style="edgeStyle=none;html=1;entryX=0.485;entryY=0.993;entryDx=0;entryDy=0;entryPerimeter=0;" parent="1" target="44" edge="1">
                    <mxGeometry relative="1" as="geometry">
                        <mxPoint x="132" y="300" as="sourcePoint"/>
                    </mxGeometry>
                </mxCell>
                <mxCell id="94" value="HTML" style="text;html=1;align=center;verticalAlign=middle;resizable=0;points=[];autosize=1;strokeColor=none;fillColor=none;" parent="1" vertex="1">
                    <mxGeometry x="380" y="310" width="60" height="30" as="geometry"/>
                </mxCell>
                <mxCell id="97" style="edgeStyle=none;html=1;exitX=1;exitY=0.5;exitDx=0;exitDy=0;entryX=0;entryY=0.75;entryDx=0;entryDy=0;" parent="1" source="53" target="64" edge="1">
                    <mxGeometry relative="1" as="geometry">
                        <mxPoint x="544" y="201" as="targetPoint"/>
                    </mxGeometry>
                </mxCell>
                <mxCell id="99" style="edgeStyle=none;html=1;exitX=1;exitY=0.5;exitDx=0;exitDy=0;entryX=0;entryY=0.5;entryDx=0;entryDy=0;" parent="1" source="54" target="65" edge="1">
                    <mxGeometry relative="1" as="geometry"/>
                </mxCell>
                <mxCell id="100" style="edgeStyle=none;html=1;exitX=1;exitY=0.5;exitDx=0;exitDy=0;entryX=0;entryY=0.75;entryDx=0;entryDy=0;" parent="1" source="55" target="65" edge="1">
                    <mxGeometry relative="1" as="geometry"/>
                </mxCell>
                <mxCell id="106" style="edgeStyle=none;html=1;exitX=1;exitY=0.5;exitDx=0;exitDy=0;entryX=1;entryY=0.5;entryDx=0;entryDy=0;" parent="1" source="23" target="102" edge="1">
                    <mxGeometry relative="1" as="geometry">
                        <mxPoint x="704" y="461" as="targetPoint"/>
                        <Array as="points">
                            <mxPoint x="774" y="171"/>
                            <mxPoint x="774" y="391"/>
                        </Array>
                    </mxGeometry>
                </mxCell>
                <mxCell id="107" style="edgeStyle=none;html=1;exitX=0;exitY=0.25;exitDx=0;exitDy=0;entryX=0;entryY=0;entryDx=160;entryDy=69.5;entryPerimeter=0;" parent="1" source="55" edge="1" target="44">
                    <mxGeometry relative="1" as="geometry">
                        <mxPoint x="214" y="186" as="targetPoint"/>
                    </mxGeometry>
                </mxCell>
                <mxCell id="109" value="POST" style="text;html=1;align=center;verticalAlign=middle;resizable=0;points=[];autosize=1;strokeColor=none;fillColor=none;rotation=35;" parent="1" vertex="1">
                    <mxGeometry x="241" y="173" width="60" height="30" as="geometry"/>
                </mxCell>
                <mxCell id="114" style="edgeStyle=none;html=1;exitX=1;exitY=0.5;exitDx=0;exitDy=0;entryX=1;entryY=0.5;entryDx=0;entryDy=0;" parent="1" source="64" target="104" edge="1">
                    <mxGeometry relative="1" as="geometry">
                        <mxPoint x="654" y="391" as="targetPoint"/>
                        <mxPoint x="699" y="171" as="sourcePoint"/>
                        <Array as="points">
                            <mxPoint x="774" y="196"/>
                            <mxPoint x="774" y="421"/>
                        </Array>
                    </mxGeometry>
                </mxCell>
                <mxCell id="115" style="edgeStyle=none;html=1;exitX=1;exitY=0.5;exitDx=0;exitDy=0;entryX=1;entryY=0.5;entryDx=0;entryDy=0;" parent="1" edge="1">
                    <mxGeometry relative="1" as="geometry">
                        <mxPoint x="654" y="445.5" as="targetPoint"/>
                        <mxPoint x="699" y="220.5" as="sourcePoint"/>
                        <Array as="points">
                            <mxPoint x="774" y="220.5"/>
                            <mxPoint x="774" y="445.5"/>
                        </Array>
                    </mxGeometry>
                </mxCell>
                <mxCell id="117" value="SQL" style="text;html=1;align=center;verticalAlign=middle;resizable=0;points=[];autosize=1;strokeColor=none;fillColor=none;" parent="1" vertex="1">
                    <mxGeometry x="719" y="361" width="50" height="30" as="geometry"/>
                </mxCell>
                <mxCell id="123" value="JSON" style="text;html=1;align=center;verticalAlign=middle;resizable=0;points=[];autosize=1;strokeColor=none;fillColor=none;rotation=35;" parent="1" vertex="1">
                    <mxGeometry x="228" y="200" width="60" height="30" as="geometry"/>
                </mxCell>
                <mxCell id="125" value="/api" style="text;html=1;align=center;verticalAlign=middle;resizable=0;points=[];autosize=1;strokeColor=none;fillColor=none;" parent="1" vertex="1">
                    <mxGeometry x="474" y="121" width="40" height="30" as="geometry"/>
                </mxCell>
                <mxCell id="127" value="/data" style="text;html=1;align=center;verticalAlign=middle;resizable=0;points=[];autosize=1;strokeColor=none;fillColor=none;" parent="1" vertex="1">
                    <mxGeometry x="238" y="110" width="50" height="30" as="geometry"/>
                </mxCell>
                <mxCell id="129" style="edgeStyle=none;html=1;exitX=0.394;exitY=0.995;exitDx=0;exitDy=0;exitPerimeter=0;" edge="1" parent="1" source="44">
                    <mxGeometry relative="1" as="geometry">
                        <mxPoint x="117" y="231" as="sourcePoint"/>
                        <mxPoint x="117" y="300" as="targetPoint"/>
                    </mxGeometry>
                </mxCell>
                <mxCell id="140" value="SQL" style="text;html=1;align=center;verticalAlign=middle;resizable=0;points=[];autosize=1;strokeColor=none;fillColor=none;" vertex="1" parent="1">
                    <mxGeometry x="228" y="460" width="50" height="30" as="geometry"/>
                </mxCell>
            </root>
        </mxGraphModel>
    </diagram>
</mxfile>